# 3ds Max Wavefront OBJ Exporter v0.94b - (c)2007 guruware
# File Created: 14.08.2012 20:02:44

mtllib 11-1.mtl

#
# object 11_1
#

v  -10.2040 4.5960 22.4811
v  50.2010 21.3780 13.4480
v  -60.3650 21.0860 -20.1910
v  39.2668 -14.9056 11.0119
v  29.1131 -52.2878 1.0989
v  -46.1400 -28.8650 21.1670
v  -105.3810 -51.5770 -57.6250
v  36.2690 35.4890 -2.9260
v  -101.3029 11.4559 -58.6401
v  -103.5920 -5.7730 53.8660
v  -66.3650 11.0760 27.2010
# 11 vertices

vn 0.0462 0.4653 0.8839
vn 0.0788 0.2375 0.9682
vn -0.1750 0.9762 0.1281
vn 0.1423 -0.2083 0.9677
vn 0.0408 -0.5221 0.8519
vn 0.0247 -0.6202 0.7841
vn -0.7870 -0.5639 0.2503
vn -0.1346 0.5903 0.7959
vn -0.2195 0.7951 0.5653
vn -0.0942 0.7131 0.6947
vn -0.1269 0.9856 -0.1117
vn -0.8076 0.5890 0.0301
vn -0.4986 0.0658 0.8643
vn 0.0873 0.7655 0.6375
# 14 vertex normals

g 11_1
usemtl default
s 1
f 1//1 2//2 3//3 
f 4//4 2//2 1//1 
f 1//1 5//5 4//4 
f 5//5 1//1 6//6 
usemtl wire_113135006
f 6//6 7//7 5//5 
usemtl wire_138008110
f 1//8 8//9 3//3 
usemtl wire_143225087
f 8//10 1//8 2//10 
usemtl wire_008008136
f 8//11 9//12 3//3 
usemtl wire_008061138
f 6//6 10//13 7//7 
usemtl wire_224086086
f 10//13 3//3 9//12 
usemtl wire_154185229
f 7//7 10//13 9//12 
usemtl wire_027177027
f 11//14 1//1 3//3 
usemtl wire_198225087
f 11//14 3//3 10//13 
usemtl wire_229154215
f 6//6 1//8 11//14 
usemtl wire_087225143
f 6//6 11//14 10//13 
# 0 polygons - 15 triangles

