# 3ds Max Wavefront OBJ Exporter v0.94b - (c)2007 guruware
# File Created: 02.07.2012 15:50:51

#
# object fullfoot
#

v  -75.4970 -71.2983 -131.8935
v  -70.7054 23.9204 -99.2790
v  -46.5323 -41.2169 -141.9468
v  6.8155 -8.3897 -95.9065
v  -46.7286 28.0400 -58.5848
v  -19.2919 -61.4851 -76.6841
v  -7.4902 13.4770 -79.2438
v  -21.3110 2.3662 -72.5003
v  -69.5505 -115.1775 -176.0226
v  -69.0984 -70.3563 -158.1451
v  -20.7978 -112.9323 -183.1669
v  -4.7414 -94.5737 -123.1681
v  -9.4441 -140.1341 -128.3413
v  14.2046 -27.1780 -119.5107
v  -24.4895 43.7745 -100.4301
v  -37.5386 51.8460 -65.1128
v  14.6317 36.8267 -95.9584
v  -61.8258 -3.8706 -74.4724
v  -47.8472 -53.8615 -75.0199
v  -56.9897 -89.3114 -189.7910
v  -28.2915 -56.3790 -166.4155
v  -2.0861 -66.4554 -158.4681
v  15.2499 12.4399 -123.2061
v  -38.5287 -165.0657 -58.5360
v  -27.2886 -122.0010 -67.7170
v  -53.5826 -95.4833 -74.3190
v  -43.3872 -167.1053 -45.6361
v  -66.2176 -110.5478 -81.8099
v  -71.0202 -155.3165 -116.3328
v  -35.5841 -166.0985 -141.8981
v  -70.5014 36.7269 -78.5481
v  -22.0835 42.0348 -50.3412
v  -7.3449 -135.8072 -87.1029
v  -25.8204 -94.8246 -74.0330
v  -0.7555 -49.4150 -101.2189
v  -10.8805 70.2834 -55.0344
v  3.0386 52.9766 -77.8519
v  -4.2235 -0.0031 -134.0359
v  -13.7896 -2.4377 -139.0877
v  14.6125 13.3920 -94.6023
v  -65.1786 -67.5900 -91.5546
v  -65.9822 -160.0092 -82.2737
v  -58.5801 61.3610 -47.2230
v  -30.7174 -215.3556 -124.5798
v  -2.6150 -197.2393 -54.7920
v  3.2208 40.7984 -63.0496
v  -38.4624 74.3477 -40.7137
v  -20.6130 73.5582 -45.6077
v  -41.6975 48.6346 -49.2465
v  -33.1966 -163.7203 -50.7498
# 50 vertices

vn -0.9875 0.1386 -0.0749
vn -0.8263 0.3910 -0.4054
vn -0.5220 0.4836 -0.7026
vn 0.7750 -0.1803 0.6057
vn -0.2166 -0.3334 0.9176
vn 0.4763 -0.0758 0.8760
vn 0.4503 -0.3321 0.8288
vn 0.4535 -0.0410 0.8903
vn 0.6324 -0.0307 0.7740
vn 0.3362 -0.2377 0.9113
vn -0.9832 0.0526 -0.1748
vn -0.7689 0.4882 -0.4127
vn 0.4912 -0.2908 -0.8211
vn 0.9888 -0.1402 0.0514
vn 0.9307 -0.2210 -0.2914
vn 0.9873 -0.1449 0.0652
vn -0.0544 0.8593 -0.5086
vn 0.1690 0.9056 -0.3891
vn 0.8319 0.5275 -0.1725
vn -0.6094 -0.1362 0.7811
vn -0.3107 -0.0514 0.9491
vn 0.0046 -0.1968 0.9804
vn -0.3813 0.2888 -0.8782
vn 0.0155 0.5010 -0.8653
vn 0.8273 -0.0289 -0.5610
vn 0.7607 0.3646 -0.5370
vn -0.4816 0.0717 0.8735
vn 0.3970 0.2254 0.8897
vn -0.3177 0.1348 0.9386
vn 0.0994 0.3674 0.9247
vn -0.7580 0.1315 0.6389
vn -0.9959 0.0483 0.0760
vn 0.5853 -0.3807 -0.7159
vn -0.8928 0.4452 0.0681
vn 0.0504 -0.3696 0.9278
vn 0.9319 0.1367 0.3359
vn 0.5313 0.0740 0.8440
vn 0.8549 -0.2296 0.4652
vn 0.7325 0.4545 0.5069
vn 0.8885 0.4125 -0.2011
vn 0.1707 0.4812 -0.8598
vn -0.3919 0.4712 -0.7902
vn 0.8986 -0.2391 0.3679
vn 0.8273 -0.2196 0.5170
vn -0.0107 0.0183 0.9998
vn -0.8656 -0.0998 0.4907
vn -0.8617 -0.0089 0.5074
vn -0.7489 0.4997 0.4351
vn 0.8600 -0.2650 -0.4360
vn 0.9566 0.1200 0.2654
vn -0.7310 0.1121 0.6731
vn 0.7325 0.1163 0.6708
vn -0.0154 0.2271 0.9737
vn -0.8519 -0.0090 0.5236
vn 0.8698 -0.1872 0.4565
vn -0.9459 0.2446 0.2129
vn 0.0911 0.1813 0.9792
vn 0.7803 0.0491 0.6235
vn 0.3539 -0.3947 0.8479
vn 0.6977 -0.0856 0.7113
vn 0.5694 -0.2291 0.7895
vn 0.8191 -0.1157 0.5619
vn -0.6024 -0.1770 0.7783
vn -0.5362 -0.1590 0.8290
vn 0.0597 0.0058 0.9982
vn 0.2357 -0.3327 0.9131
vn -0.3737 -0.1423 0.9166
vn 0.0268 -0.4557 0.8897
vn 0.5525 -0.2455 0.7965
vn 0.4637 -0.5792 0.6705
vn 0.8684 -0.2179 0.4453
vn 0.7426 0.1594 0.6505
vn 0.5327 0.2530 0.8076
vn 0.1287 0.3579 0.9248
# 74 vertex normals

g fullfoot
f 1//1 2//2 3//3 
f 4//4 5//5 6//6 
f 7//7 5//8 6//8 
f 4//9 8//10 6//9 
f 9//11 1//1 10//12 
f 11//13 12//14 13//15 
f 11//13 14//16 12//14 
f 15//17 16//18 17//19 
f 6//6 5//5 18//20 
f 8//10 19//21 6//6 
f 5//5 19//22 6//22 
f 20//23 21//24 22//25 
f 21//24 23//26 22//25 
f 24//27 25//28 26//29 
f 27//30 25//28 28//31 
f 29//32 28//31 9//11 
f 11//13 30//33 20//23 
f 18//20 5//5 31//34 
f 16//18 15//17 31//34 
f 15//17 17//19 23//26 
f 7//7 32//35 8//10 
f 33//36 25//28 27//30 
f 34//37 12//14 35//38 
f 16//18 36//39 37//40 
f 38//41 23//26 21//24 
f 3//3 2//2 39//42 
f 40//43 23//26 17//19 
f 6//6 35//38 4//4 
f 4//44 6//44 35//38 
f 34//37 19//21 26//29 
f 34//45 19//45 26//29 
f 34//45 19//45 26//29 
f 41//46 18//20 2//2 
f 24//27 28//31 42//47 
f 32//35 16//18 8//10 
f 5//5 43//48 31//34 
f 44//49 13//15 45//50 
f 30//33 11//13 13//15 
f 41//46 26//29 19//21 
f 19//51 41//51 26//29 
f 9//11 28//31 1//1 
f 34//37 26//29 25//28 
f 25//28 33//36 34//37 
f 33//52 34//52 25//28 
f 25//53 34//53 26//29 
f 25//53 34//53 26//29 
f 28//54 42//54 27//30 
f 17//19 46//55 40//43 
f 37//40 46//55 7//7 
f 37//40 36//39 46//55 
f 46//56 37//56 7//7 
f 2//2 15//17 39//42 
f 30//33 13//15 44//49 
f 13//15 33//36 45//50 
f 33//36 27//30 45//50 
f 14//16 23//26 4//4 
f 22//25 23//26 14//16 
f 16//18 43//48 47//57 
f 43//48 16//18 31//34 
f 16//18 48//58 49//59 
f 8//10 16//18 49//59 
f 7//7 5//5 4//4 
f 4//60 7//60 6//6 
f 8//10 4//61 7//61 
f 23//26 40//43 4//4 
f 34//37 35//38 6//6 
f 35//62 6//62 34//37 
f 19//21 34//37 6//6 
f 10//12 21//24 20//23 
f 3//3 39//42 21//24 
f 19//21 18//20 41//46 
f 19//63 18//63 41//46 
f 5//64 18//64 19//21 
f 6//65 18//20 19//65 
f 8//10 18//20 19//21 
f 16//18 47//57 48//58 
f 48//58 47//57 49//59 
f 48//66 47//66 49//59 
f 49//66 48//66 47//57 
f 20//23 9//11 10//12 
f 22//25 11//13 20//23 
f 11//13 22//25 14//16 
f 32//35 46//55 36//39 
f 32//35 7//7 46//55 
f 38//41 15//17 23//26 
f 26//29 1//1 28//31 
f 24//27 26//29 28//31 
f 25//67 26//67 28//31 
f 8//10 5//68 18//68 
f 5//5 8//10 49//59 
f 5//5 49//59 43//48 
f 49//59 47//57 43//48 
f 4//4 40//43 7//7 
f 40//69 7//69 4//4 
f 46//70 7//70 40//43 
f 4//69 40//69 7//7 
f 13//15 12//14 33//36 
f 12//14 34//37 33//36 
f 12//14 14//16 35//38 
f 14//16 4//4 35//38 
f 14//71 4//71 35//38 
f 42//47 28//31 29//32 
f 2//2 31//34 15//17 
f 18//20 31//34 2//2 
f 1//1 41//46 2//2 
f 26//29 41//46 1//1 
f 32//35 36//39 48//58 
f 33//72 25//72 50//73 
f 50//73 25//74 26//74 
f 1//1 3//3 10//12 
f 10//12 3//3 21//24 
# 111 faces

